<svg id="Layer_1" data-name="Layer 1" xmlns="http://www.w3.org/2000/svg" viewBox="0 0 702.18 186.69"><defs><style>.cls-1,.cls-2,.cls-3{fill:#1d1d1b;}.cls-13,.cls-2,.cls-3{fill-rule:evenodd;}.cls-10,.cls-11,.cls-12,.cls-13,.cls-14,.cls-15,.cls-16,.cls-17,.cls-18,.cls-19,.cls-20,.cls-21,.cls-22,.cls-3,.cls-4,.cls-5,.cls-6,.cls-7,.cls-8,.cls-9{stroke:#1d1d1b;}.cls-10,.cls-12,.cls-13,.cls-15,.cls-16,.cls-17,.cls-18,.cls-19,.cls-3,.cls-6,.cls-7,.cls-9{stroke-miterlimit:2.61;}.cls-3{stroke-width:0.28px;}.cls-10,.cls-11,.cls-12,.cls-13,.cls-14,.cls-15,.cls-16,.cls-17,.cls-18,.cls-19,.cls-20,.cls-21,.cls-22,.cls-4,.cls-5,.cls-6,.cls-7,.cls-8,.cls-9{fill:none;}.cls-10,.cls-11,.cls-20,.cls-21,.cls-22,.cls-4,.cls-5,.cls-8,.cls-9{stroke-linecap:round;}.cls-11,.cls-14,.cls-20,.cls-21,.cls-22,.cls-4,.cls-5,.cls-8{stroke-linejoin:round;}.cls-4{stroke-width:1.98px;}.cls-12,.cls-5{stroke-width:1.94px;}.cls-6{stroke-width:3.05px;}.cls-7{stroke-width:3.09px;}.cls-8{stroke-width:1.94px;}.cls-9{stroke-width:3.03px;}.cls-10{stroke-width:3.06px;}.cls-11{stroke-width:1.15px;}.cls-13,.cls-14,.cls-15{stroke-width:1.94px;}.cls-16{stroke-width:1.92px;}.cls-17{stroke-width:1.43px;}.cls-18{stroke-width:2.27px;}.cls-19{stroke-width:2.27px;}.cls-20{stroke-width:1.94px;}.cls-21{stroke-width:1.94px;}.cls-22{stroke-width:1.94px;}</style></defs><title>Artboard 1</title><path class="cls-1" d="M164.6,186.69v-26.5h3.69v12.49l6.09-12.49h3.44l-5.24,11.68,6.09,14.82h-3.6L170,174.25l-1.71,3.08v9.36Z"/><path class="cls-1" d="M198.59,186.69l5.63-26.5h3.57l5.66,26.5H210L208.74,180h-5.4l-1.28,6.68Zm5.24-9.33h4.42L206,165.42Z"/><path class="cls-1" d="M235.37,186.69v-26.5h2.52l7.53,17.6v-17.6h3.07v26.5h-2.35l-7.63-18.1v18.1Z"/><path class="cls-1" d="M278.53,187a7.16,7.16,0,0,1-4.37-1.17,6.19,6.19,0,0,1-2.16-3.18,15.4,15.4,0,0,1-.6-4.45v-9.36a16.42,16.42,0,0,1,.6-4.68,5.72,5.72,0,0,1,2.16-3.09,7.53,7.53,0,0,1,4.37-1.09,7.34,7.34,0,0,1,3.94.91,5.17,5.17,0,0,1,2.1,2.62,11.83,11.83,0,0,1,.64,4.09v2.09h-3.5v-1.86a19.93,19.93,0,0,0-.15-2.6,2.87,2.87,0,0,0-.8-1.75,3.13,3.13,0,0,0-2.2-.62,3.28,3.28,0,0,0-2.29.67,3.23,3.23,0,0,0-.93,1.89,17.28,17.28,0,0,0-.21,2.87v10.5a12.06,12.06,0,0,0,.33,3.16,2.71,2.71,0,0,0,1.08,1.65,3.62,3.62,0,0,0,2,.49,2.9,2.9,0,0,0,2.16-.67,3.18,3.18,0,0,0,.82-1.85,19.93,19.93,0,0,0,.17-2.75v-2h3.5v2a14.12,14.12,0,0,1-.59,4.27,5.39,5.39,0,0,1-2,2.88A6.86,6.86,0,0,1,278.53,187Z"/><path class="cls-1" d="M308,186.69v-26.5h10.27v2.74h-6.57v8.77H317v2.62h-5.33V184h6.64v2.65Z"/><path class="cls-1" d="M340.54,186.69v-26.5h3.69V184H351v2.65Z"/><path class="cls-1" d="M372.77,186.69v-26.5h3.69V184h6.78v2.65Z"/><path class="cls-1" d="M403.56,186.69l5.63-26.5h3.56l5.66,26.5h-3.5L413.7,180h-5.4L407,186.69Zm5.23-9.33h4.42L411,165.42Zm1.28-18.75,1.93-6.47h3.5l-3.66,6.47Z"/><path class="cls-1" d="M440.34,186.69v-26.5h5.33a11.68,11.68,0,0,1,4.38.7,4.85,4.85,0,0,1,2.57,2.26,8.52,8.52,0,0,1,.84,4.07,11,11,0,0,1-.33,2.8,5.35,5.35,0,0,1-1.05,2.12,4,4,0,0,1-1.9,1.26L454,186.69h-3.57l-3.47-12.44H444v12.44ZM444,171.6h1.41a7,7,0,0,0,2.55-.39,2.6,2.6,0,0,0,1.44-1.34,6.15,6.15,0,0,0,.46-2.65,5.22,5.22,0,0,0-.85-3.35c-.57-.69-1.69-1-3.37-1H444Z"/><path class="cls-1" d="M476.75,186.69v-26.5h3.64v26.5Z"/><path class="cls-1" d="M502.47,186.69l5.63-26.5h3.57l5.66,26.5h-3.5L512.62,180h-5.4l-1.28,6.68Zm5.24-9.33h4.42l-2.23-11.94Z"/><path class="cls-2" d="M429.69,11.69V10h.79V5l.35-1.88L431.72,0l.9,3.16L433,5V10h.79v1.73l8.74,26.83a8.85,8.85,0,0,0-.92,3.33H421.85a8.53,8.53,0,0,0-.91-3.31l8.75-26.85Z"/><polygon class="cls-3" points="295.51 71.4 290.92 71.4 290.35 67.26 290.35 66.5 296.08 66.5 296.08 67.26 295.51 71.4 295.51 71.4"/><path class="cls-2" d="M310.36,79.73a5.68,5.68,0,0,0-1.56-1.15h0a9.13,9.13,0,0,0-8,0h0a5.68,5.68,0,0,0-1.56,1.15h0a3.68,3.68,0,0,0-1.07,2.48h0v24.41h13.29V82.21h0a3.68,3.68,0,0,0-1.07-2.48Z"/><polygon class="cls-3" points="318.66 71.4 314.07 71.4 313.5 67.26 313.5 66.5 319.23 66.5 319.23 67.26 318.66 71.4 318.66 71.4"/><path class="cls-2" d="M333.51,79.73A5.68,5.68,0,0,0,332,78.58h0a9.13,9.13,0,0,0-8,0h0a5.68,5.68,0,0,0-1.56,1.15h0a3.68,3.68,0,0,0-1.07,2.48h0v24.41h13.29V82.21h0a3.68,3.68,0,0,0-1.07-2.48Z"/><path class="cls-2" d="M356.66,79.73a5.68,5.68,0,0,0-1.56-1.15h0a9.13,9.13,0,0,0-8,0h0a5.68,5.68,0,0,0-1.56,1.15h0a3.68,3.68,0,0,0-1.07,2.48h0v24.41h13.29V82.21h0a3.68,3.68,0,0,0-1.07-2.48Z"/><polygon class="cls-3" points="341.81 71.4 337.21 71.4 336.65 67.26 336.65 66.5 342.38 66.5 342.38 67.26 341.81 71.4 341.81 71.4"/><path class="cls-2" d="M379.81,79.73a5.68,5.68,0,0,0-1.56-1.15h0a9.13,9.13,0,0,0-8,0h0a5.68,5.68,0,0,0-1.56,1.15h0a3.68,3.68,0,0,0-1.07,2.48h0v24.41h13.29V82.21h0a3.68,3.68,0,0,0-1.07-2.48Z"/><polygon class="cls-3" points="364.96 71.4 360.36 71.4 359.8 67.26 359.8 66.5 365.53 66.5 365.53 67.26 364.96 71.4 364.96 71.4"/><path class="cls-2" d="M403,79.73a5.68,5.68,0,0,0-1.56-1.15h0a9.13,9.13,0,0,0-8,0h0a5.68,5.68,0,0,0-1.56,1.15h0a3.68,3.68,0,0,0-1.07,2.48h0v24.41H404V82.21h0A3.68,3.68,0,0,0,403,79.73Z"/><polygon class="cls-3" points="388.11 71.4 383.51 71.4 382.95 67.26 382.95 66.5 388.68 66.5 388.68 67.26 388.11 71.4 388.11 71.4"/><polygon class="cls-3" points="411.26 71.4 406.66 71.4 406.1 67.26 406.1 66.5 411.82 66.5 411.82 67.26 411.26 71.4 411.26 71.4"/><polygon class="cls-3" points="401.26 126.79 401.26 133.2 393.94 133.2 393.94 126.79 401.26 126.79 401.26 126.79"/><polygon class="cls-3" points="402.42 116.67 402.42 120.99 392.79 120.99 392.79 116.67 402.42 116.67 402.42 116.67"/><path class="cls-2" d="M334.47,125.13v-2.26h0a6.53,6.53,0,1,0-13.06,0h0v10.85l.07.1v4.39H334.4v-4.39l.07-.07v-8.62Z"/><path class="cls-2" d="M357.62,125.51v-2.26h0a6.53,6.53,0,0,0-13.06,0h0v10.47l.07.1v4.39h12.93v-4.39l.07-.07v-8.24Z"/><path class="cls-2" d="M380.77,125.39v-2.26h0a6.54,6.54,0,1,0-13.07,0h0v10.59l.08.1v4.39H380.7v-4.39l.07-.07v-8.36Z"/><path class="cls-2" d="M402.05,48.37c0-5.54-9.33-5.42-9.33,0H378.9c0-5.31-9.33-5.29-9.33,0H355.75c0-5.29-9.32-5.37-9.32,0l-13.83,0c0-5.26-9.32-5.29-9.32,0H309.45c0-5.22-9.32-5.3-9.32,0H286.5V43.58h3.24l22.05-25.43L314.16,15l0,0v0l-.22-.05.19,0h-.2V9.44h0a3.39,3.39,0,0,1,.35-1.56h0a1.77,1.77,0,0,1,1.13-1h0l.27,0,.27,0h0a1.77,1.77,0,0,1,1.13,1h0a3.39,3.39,0,0,1,.35,1.56h0v4.7h67.29V9.44h0a3.66,3.66,0,0,1,.35-1.56h0a1.77,1.77,0,0,1,1.13-1h0l.27,0,.28,0h0a1.77,1.77,0,0,1,1.13,1h0a3.66,3.66,0,0,1,.35,1.56h0v5.5H388v0h0l2.44,3.18,22,25.46h3.29l0,4.79Z"/><polygon class="cls-3" points="308.23 126.99 308.23 133.2 300.91 133.2 300.91 126.99 308.23 126.99 308.23 126.99"/><polygon class="cls-3" points="309.39 116.67 309.39 120.99 299.75 120.99 299.75 116.67 309.39 116.67 309.39 116.67"/><path class="cls-2" d="M272.49,11.69V10h-.8V5l-.34-1.88L270.45,0l-.9,3.16L269.21,5V10h-.8v1.73l-8.75,26.86a8.25,8.25,0,0,1,.94,3.3h19.73a8.82,8.82,0,0,1,.92-3.26l-8.76-26.9Z"/><path class="cls-2" d="M264.38,78.32a2.37,2.37,0,0,0-4.35,0h0v8.86h4.35V78.32Z"/><path class="cls-2" d="M425.74,78.32a2.37,2.37,0,0,0-4.35,0h0v8.86h4.35V78.32Z"/><path class="cls-2" d="M272.63,78.32c-.82-2.06-3.87-2.06-4.35,0h0v8.86h4.35V78.32Z"/><path class="cls-2" d="M434,78.32c-.82-2.06-3.87-2.06-4.35,0h0v8.86H434V78.32Z"/><path class="cls-2" d="M280.33,78.32a2.36,2.36,0,0,0-4.35,0h0v8.86h4.35V78.32Z"/><path class="cls-2" d="M441.69,78.32a2.36,2.36,0,0,0-4.35,0h0v8.86h4.35V78.32Z"/><polygon class="cls-2" points="260.02 95.2 260.02 104.81 264.38 104.81 264.38 95.2 260.02 95.2 260.02 95.2"/><polygon class="cls-2" points="421.39 95.2 421.39 104.81 425.74 104.81 425.74 95.2 421.39 95.2 421.39 95.2"/><polygon class="cls-2" points="268.28 95.2 268.28 104.81 272.63 104.81 272.63 95.2 268.28 95.2 268.28 95.2"/><polygon class="cls-2" points="429.64 95.2 429.64 104.81 433.99 104.81 433.99 95.2 429.64 95.2 429.64 95.2"/><polygon class="cls-2" points="275.98 95.2 275.98 104.81 280.33 104.81 280.33 95.2 275.98 95.2 275.98 95.2"/><polygon class="cls-2" points="437.34 95.2 437.34 104.81 441.69 104.81 441.69 95.2 437.34 95.2 437.34 95.2"/><polygon class="cls-2" points="260.04 116.45 260.04 126.39 264.39 126.39 264.39 116.45 260.04 116.45 260.04 116.45"/><polygon class="cls-2" points="421.4 116.45 421.4 126.39 425.75 126.39 425.75 116.45 421.4 116.45 421.4 116.45"/><polygon class="cls-2" points="268.28 116.45 268.28 126.39 272.63 126.39 272.63 116.45 268.28 116.45 268.28 116.45"/><polygon class="cls-2" points="429.64 116.45 429.64 126.39 433.99 126.39 433.99 116.45 429.64 116.45 429.64 116.45"/><polygon class="cls-2" points="276.11 116.45 276.11 126.39 280.46 126.39 280.46 116.45 276.11 116.45 276.11 116.45"/><polygon class="cls-2" points="437.47 116.45 437.47 126.39 441.82 126.39 441.82 116.45 437.47 116.45 437.47 116.45"/><polygon class="cls-2" points="259.99 135.2 259.99 139.03 264.41 139.03 264.41 135.2 259.99 135.2 259.99 135.2"/><polygon class="cls-2" points="421.35 135.2 421.35 139.03 425.77 139.03 425.77 135.2 421.35 135.2 421.35 135.2"/><polygon class="cls-2" points="268.24 135.2 268.24 139.03 272.66 139.03 272.66 135.2 268.24 135.2 268.24 135.2"/><polygon class="cls-2" points="429.6 135.2 429.6 139.03 434.02 139.03 434.02 135.2 429.6 135.2 429.6 135.2"/><polygon class="cls-2" points="276.1 135.2 276.1 139.03 280.52 139.03 280.52 135.2 276.1 135.2 276.1 135.2"/><polygon class="cls-2" points="437.46 135.2 437.46 139.03 441.88 139.03 441.88 135.2 437.46 135.2 437.46 135.2"/><polygon class="cls-3" points="60.66 139.15 55.03 139.15 55.03 135.59 60.66 135.59 60.66 139.15 60.66 139.15"/><polygon class="cls-3" points="684.59 139.15 678.97 139.15 678.97 135.59 684.59 135.59 684.59 139.15 684.59 139.15"/><polygon class="cls-3" points="42.3 139.15 36.67 139.15 36.67 135.59 42.3 135.59 42.3 139.15 42.3 139.15"/><polygon class="cls-3" points="666.24 139.15 660.61 139.15 660.61 135.59 666.24 135.59 666.24 139.15 666.24 139.15"/><polygon class="cls-3" points="23.35 139.15 17.73 139.15 17.73 135.59 23.35 135.59 23.35 139.15 23.35 139.15"/><polygon class="cls-3" points="647.29 139.15 641.66 139.15 641.66 135.59 647.29 135.59 647.29 139.15 647.29 139.15"/><path class="cls-2" d="M69.74,58.66V51.07L69,50.74v-4c0-.59-.24-2.78-1.69-3.19H254.44l0,11.41-3.87.86v2.81h-5.92a.8.8,0,0,1-.77-.58h0a2.37,2.37,0,0,0-4,0h0a.8.8,0,0,1-.77.58h-8.48a.8.8,0,0,1-.76-.58h0a2.38,2.38,0,0,0-4,0h0a.8.8,0,0,1-.76.58h-9.55a.82.82,0,0,1-.77-.58h0a2.37,2.37,0,0,0-4,0h0a.8.8,0,0,1-.76.58h-9.23a.81.81,0,0,1-.77-.58h0a2.37,2.37,0,0,0-4,0h0a.8.8,0,0,1-.76.58h-9.07a.81.81,0,0,1-.77-.58h0a2.37,2.37,0,0,0-4,0h0a.8.8,0,0,1-.77.58h0l-9.07,0h0a.8.8,0,0,1-.77-.57h0a2.37,2.37,0,0,0-4,0h0a.77.77,0,0,1-.77.54h-9.61a.8.8,0,0,1-.76-.58h0a2.37,2.37,0,0,0-4,0h0a.8.8,0,0,1-.76.58h-9.18a.8.8,0,0,1-.77-.58h0a2.37,2.37,0,0,0-4,0h0a.8.8,0,0,1-.77.58h-9.61a.8.8,0,0,1-.76-.58h0a2.37,2.37,0,0,0-4,0h0a.8.8,0,0,1-.76.58h-9.33a.8.8,0,0,1-.76-.58h0a2.38,2.38,0,0,0-4,0h0a.8.8,0,0,1-.76.58H97.41a.8.8,0,0,1-.77-.58h0a2.37,2.37,0,0,0-4,0h0a.81.81,0,0,1-.77.58h-9a.8.8,0,0,1-.77-.58h0a2.37,2.37,0,0,0-4,0h0a.81.81,0,0,1-.77.58H69.74Z"/><path class="cls-2" d="M632.45,58.66V51.07l.77-.33v-4c0-.72.31-2.81,1.7-3.19H447.75l0,11.41,3.87.86v2.81h5.94a.8.8,0,0,0,.76-.58h0a2.37,2.37,0,0,1,4,0h0a.8.8,0,0,0,.76.58h8.48a.8.8,0,0,0,.77-.58h0a2.37,2.37,0,0,1,4,0h0a.8.8,0,0,0,.77.58h9.54a.8.8,0,0,0,.77-.58h0a2.37,2.37,0,0,1,4,0h0a.81.81,0,0,0,.77.58h9.22a.8.8,0,0,0,.77-.58h0a2.37,2.37,0,0,1,4,0h0a.81.81,0,0,0,.77.58H516a.8.8,0,0,0,.76-.58h0a2.37,2.37,0,0,1,4,0h0a.82.82,0,0,0,.77.58h0l9.07,0h0a.79.79,0,0,0,.76-.57h0a2.37,2.37,0,0,1,4,0h0a.79.79,0,0,0,.77.54h9.61a.8.8,0,0,0,.77-.58h0a2.37,2.37,0,0,1,4,0h0a.8.8,0,0,0,.77.58h9.18a.8.8,0,0,0,.76-.58h0a2.38,2.38,0,0,1,4,0h0a.8.8,0,0,0,.76.58h9.61a.8.8,0,0,0,.77-.58h0a2.37,2.37,0,0,1,4,0h0a.81.81,0,0,0,.77.58h9.32a.8.8,0,0,0,.77-.58h0a2.37,2.37,0,0,1,4,0h0a.8.8,0,0,0,.77.58h8.89a.81.81,0,0,0,.77-.58h0a2.37,2.37,0,0,1,4,0h0a.8.8,0,0,0,.76.58h9a.81.81,0,0,0,.77-.58h0a2.37,2.37,0,0,1,4,0h0a.8.8,0,0,0,.77.58h7.58Z"/><path class="cls-4" d="M351.09,59.52H415m16.76,51.25H351.09m0-44.27h64M145.32,131.44H129.61m0-59.52h15.71m-136.57,0H39m0-8.81H14.34M39,131.44H8.51"/><path class="cls-5" d="M70.85,142.63V132.37m-20-.93V71.92"/><line class="cls-6" x1="70.12" y1="131.44" x2="70.12" y2="113.42"/><line class="cls-7" x1="69.86" y1="110.74" x2="69.86" y2="67.28"/><path class="cls-5" d="M64.16,131.44V71.92M45.69,131.44V71.92M39,131.44h30.8M39,63.11h24.7m5.67,8.81H39m30.3,0H82.47m0,59.52H66.75m15.72,0H69.84m-.5-59.52v2.86m44.55,56.66H98.18m0-59.52h15.71M98.18,131.44H82.47m0-59.52H98.18m31.43,59.52H113.89m0-59.52h15.72"/><path class="cls-4" d="M239.6,71.92h14.26m-1,59.52H239.6m-47.14,0H176.74m0-59.52h15.72M161,131.44H145.32m0-59.52H161m15.71,59.52H161m0-59.52h15.71m47.14,59.52H208.17m0-59.52h15.71m-15.71,59.52H192.46m0-59.52h15.71m31.43,59.52H223.88m0-59.52H239.6m111.49-12.4H287.22M6.82,110.77H351.09m-55-44.26h0m55,0H287"/><path class="cls-5" d="M287.44,130.71H253.39m17.06-59.14H253.93m-.18-12h16.7"/><line class="cls-4" x1="254.48" y1="54.99" x2="286.8" y2="54.99"/><path class="cls-5" d="M270.45,64H253.88m16.57,7.58H287m.13-12h-16.7m0,4.47H287m-30.8,0h.65m-.65,0h.65m33.49,2.52h0m31.13,71.7h0m-8.57,4.42v-4.42m76.35,0H312.91m118.81-7.5H414.66m17.06,0h17.06m-17.06-19.94h18.65m-18.65-39.2h16.61"/><line class="cls-8" x1="448.25" y1="59.52" x2="431.72" y2="59.52"/><line class="cls-5" x1="448.08" y1="54.99" x2="415.37" y2="54.99"/><line class="cls-8" x1="415.13" y1="63.99" x2="448.31" y2="63.99"/><path class="cls-5" d="M389.26,140.28v-2.07m0,4.42v-3.91m42.46-67.15H415.2m-.17-12h16.69"/><polygon class="cls-2" points="0 142.63 0 145.88 702.17 145.88 702.17 142.63 0 142.63 0 142.63"/><path class="cls-5" d="M57.54,53.79v9.32M39,53.79v9.32m-18.5-9.32v9.32m6.67,68.33V71.92m5.18,59.52V71.92M13.92,131.44V71.92m681.43,38.85H351.09M572.57,71.92H556.86m0,59.52h15.71m90.56,0h30.58M663.13,63.11h31m-.62,8.81H663.13m25.13,59.52V71.92m-25.13,59.52h-30.8m42.63,0V71.92m-5.18,59.52V71.92m-13.29,59.52V71.92m-5.18,59.52V71.92M638,131.44V71.92m-18.3,59.52h12.62m-12.62,0h15.71m-2.59-59.52H619.71m13,0h30.37m0-8.81H638.46"/><line class="cls-9" x1="632.19" y1="110.64" x2="632.19" y2="67.27"/><line class="cls-10" x1="631.93" y1="131.44" x2="631.93" y2="113.43"/><path class="cls-5" d="M588.28,131.44H604m0,0h15.71m-47.14,0h15.71M604,71.92H588.28m31.43,0H604M449.29,131.44h13.29m0-59.52H448.36m77.07,0H509.72m0,59.52h15.71m15.71,0h15.72m-31.43,0h15.71"/><line class="cls-5" x1="589.07" y1="71.92" x2="525.43" y2="71.92"/><path class="cls-5" d="M478.29,131.44H494m0,0h15.71m-47.14,0h15.71M494,71.92H462.42m47.3,0H494"/><path class="cls-11" d="M390.25,48.37V55m14.27-6.63V55M367.1,48.37V55m14.27-6.63V55M344,48.37V55m14.27-6.63V55M320.8,48.37V55m14.27-6.63V55m-23.15-6.63V55m-14.26-6.63V55"/><polygon class="cls-2" points="264.23 45.52 266.42 45.52 266.42 50.54 264.23 50.54 264.23 45.52 264.23 45.52"/><polygon class="cls-2" points="274.44 45.52 276.63 45.52 276.63 50.54 274.44 50.54 274.44 45.52 274.44 45.52"/><polygon class="cls-2" points="269.5 45.52 271.69 45.52 271.69 50.54 269.5 50.54 269.5 45.52 269.5 45.52"/><polygon class="cls-2" points="425.57 45.52 427.76 45.52 427.76 50.54 425.57 50.54 425.57 45.52 425.57 45.52"/><polygon class="cls-2" points="435.79 45.52 437.97 45.52 437.97 50.54 435.79 50.54 435.79 45.52 435.79 45.52"/><polygon class="cls-2" points="430.85 45.52 433.04 45.52 433.04 50.54 430.85 50.54 430.85 45.52 430.85 45.52"/><path class="cls-2" d="M79.94,76.05a4,4,0,0,1,4,4v7.11h-8V80.07a4,4,0,0,1,4-4Z"/><path class="cls-2" d="M79.94,93.65a4,4,0,0,1,4,4v7.11h-8V97.67a4,4,0,0,1,4-4Z"/><path class="cls-2" d="M458.94,76.05a4,4,0,0,1,4,4v7.11h-8V80.07a4,4,0,0,1,4-4Z"/><path class="cls-2" d="M458.94,93.67a4,4,0,0,1,4,4v7.12h-8V97.69a4,4,0,0,1,4-4Z"/><path class="cls-2" d="M168.76,76.05a4,4,0,0,1,4,4v7.11h-8V80.07a4,4,0,0,1,4-4Z"/><path class="cls-2" d="M168.76,93.65a4,4,0,0,1,4,4v7.11h-8V97.67a4,4,0,0,1,4-4Z"/><path class="cls-2" d="M547.77,76.05a4,4,0,0,1,4,4v7.11h-8V80.07a4,4,0,0,1,4-4Z"/><path class="cls-2" d="M547.77,93.67a4,4,0,0,1,4,4v7.12h-8V97.69a4,4,0,0,1,4-4Z"/><path class="cls-2" d="M57.47,75.28a2.75,2.75,0,0,1,2.54,3v8.13H54.93V78.29a2.75,2.75,0,0,1,2.54-3Z"/><path class="cls-2" d="M644.33,75.28a2.75,2.75,0,0,1,2.54,3v8.13h-5.08V78.29a2.75,2.75,0,0,1,2.54-3Z"/><path class="cls-2" d="M662.89,75.28a2.75,2.75,0,0,1,2.54,3v8.13h-5.08V78.29a2.75,2.75,0,0,1,2.54-3Z"/><path class="cls-2" d="M681.44,75.28a2.75,2.75,0,0,1,2.55,3v8.13H678.9V78.29a2.75,2.75,0,0,1,2.54-3Z"/><path class="cls-2" d="M644.33,93.67a2.75,2.75,0,0,1,2.54,3v8.13h-5.08V96.68a2.75,2.75,0,0,1,2.54-3Z"/><path class="cls-2" d="M662.89,93.67a2.75,2.75,0,0,1,2.54,3v8.13h-5.08V96.68a2.75,2.75,0,0,1,2.54-3Z"/><path class="cls-2" d="M681.44,93.67a2.75,2.75,0,0,1,2.55,3v8.13H678.9V96.68a2.75,2.75,0,0,1,2.54-3Z"/><path class="cls-2" d="M39.36,75.28a2.75,2.75,0,0,1,2.54,3v8.13H36.81V78.29a2.75,2.75,0,0,1,2.55-3Z"/><path class="cls-2" d="M20.38,75.28a2.75,2.75,0,0,1,2.54,3v8.13H17.84V78.29a2.75,2.75,0,0,1,2.54-3Z"/><path class="cls-2" d="M57.47,93.65a2.75,2.75,0,0,1,2.54,3v8.12H54.93V96.66a2.75,2.75,0,0,1,2.54-3Z"/><path class="cls-2" d="M39.36,93.65a2.75,2.75,0,0,1,2.54,3v8.12H36.81V96.66a2.75,2.75,0,0,1,2.55-3Z"/><path class="cls-2" d="M20.38,93.65a2.75,2.75,0,0,1,2.54,3v8.12H17.84V96.66a2.75,2.75,0,0,1,2.54-3Z"/><path class="cls-2" d="M94.75,76.05a4,4,0,0,1,4,4v7.11h-8V80.07a4,4,0,0,1,4-4Z"/><path class="cls-2" d="M94.75,93.65a4,4,0,0,1,4,4v7.11h-8V97.67a4,4,0,0,1,4-4Z"/><path class="cls-2" d="M473.75,76.05a4,4,0,0,1,4,4v7.11h-8V80.07a4,4,0,0,1,4-4Z"/><path class="cls-2" d="M473.75,93.67a4,4,0,0,1,4,4v7.12h-8V97.69a4,4,0,0,1,4-4Z"/><path class="cls-2" d="M183.57,76.05a4,4,0,0,1,4,4v7.11h-8V80.07a4,4,0,0,1,4-4Z"/><path class="cls-2" d="M183.57,93.65a4,4,0,0,1,4,4v7.11h-8V97.67a4,4,0,0,1,4-4Z"/><path class="cls-2" d="M562.57,76.05a4,4,0,0,1,4,4v7.11h-8V80.07a4,4,0,0,1,4-4Z"/><path class="cls-2" d="M562.57,93.67a4,4,0,0,1,4,4v7.12h-8V97.69a4,4,0,0,1,4-4Z"/><path class="cls-2" d="M109.55,76.05a4,4,0,0,1,4,4v7.11h-8V80.07a4,4,0,0,1,4-4Z"/><path class="cls-2" d="M109.55,93.65a4,4,0,0,1,4,4v7.11h-8V97.67a4,4,0,0,1,4-4Z"/><path class="cls-2" d="M488.55,76.05a4,4,0,0,1,4,4v7.11h-8V80.07a4,4,0,0,1,4-4Z"/><path class="cls-2" d="M488.55,93.67a4,4,0,0,1,4,4v7.12h-8V97.69a4,4,0,0,1,4-4Z"/><path class="cls-2" d="M198.37,76.05a4,4,0,0,1,4,4v7.11h-8V80.07a4,4,0,0,1,4-4Z"/><path class="cls-2" d="M198.37,93.65a4,4,0,0,1,4,4v7.11h-8V97.67a4,4,0,0,1,4-4Z"/><path class="cls-2" d="M577.37,76.05a4,4,0,0,1,4,4v7.11h-8V80.07a4,4,0,0,1,4-4Z"/><path class="cls-2" d="M577.37,93.67a4,4,0,0,1,4,4v7.12h-8V97.69a4,4,0,0,1,4-4Z"/><path class="cls-2" d="M124.35,76.05a4,4,0,0,1,4,4v7.11h-8V80.07a4,4,0,0,1,4-4Z"/><path class="cls-2" d="M124.35,93.65a4,4,0,0,1,4,4v7.11h-8V97.67a4,4,0,0,1,4-4Z"/><path class="cls-2" d="M503.35,76.05a4,4,0,0,1,4,4v7.11h-8V80.07a4,4,0,0,1,4-4Z"/><path class="cls-2" d="M503.35,93.67a4,4,0,0,1,4,4v7.12h-8V97.69a4,4,0,0,1,4-4Z"/><path class="cls-2" d="M213.18,76.05a4,4,0,0,1,4,4v7.11h-8V80.07a4,4,0,0,1,4-4Z"/><path class="cls-2" d="M213.18,93.65a4,4,0,0,1,4,4v7.11h-8V97.67a4,4,0,0,1,4-4Z"/><path class="cls-2" d="M592.18,76.05a4,4,0,0,1,4,4v7.11h-8V80.07a4,4,0,0,1,4-4Z"/><path class="cls-2" d="M592.18,93.67a4,4,0,0,1,4,4v7.12h-8V97.69a4,4,0,0,1,4-4Z"/><path class="cls-2" d="M139.16,76.05a4,4,0,0,1,4,4v7.11h-8V80.07a4,4,0,0,1,4-4Z"/><path class="cls-2" d="M139.16,93.65a4,4,0,0,1,4,4v7.11h-8V97.67a4,4,0,0,1,4-4Z"/><path class="cls-2" d="M518.16,76.05a4,4,0,0,1,4,4v7.11h-8V80.07a4,4,0,0,1,4-4Z"/><path class="cls-2" d="M518.16,93.67a4,4,0,0,1,4,4v7.12h-8V97.69a4,4,0,0,1,4-4Z"/><path class="cls-2" d="M228,76.05a4,4,0,0,1,4,4v7.11h-8V80.07a4,4,0,0,1,4-4Z"/><path class="cls-2" d="M228,93.65a4,4,0,0,1,4,4v7.11h-8V97.67a4,4,0,0,1,4-4Z"/><path class="cls-2" d="M607,76.05a4,4,0,0,1,4,4v7.11h-8V80.07a4,4,0,0,1,4-4Z"/><path class="cls-2" d="M607,93.67a4,4,0,0,1,4,4v7.12h-8V97.69a4,4,0,0,1,4-4Z"/><path class="cls-2" d="M241.9,76.05a4,4,0,0,1,4,4v7.11h-8V80.07a4,4,0,0,1,4-4Z"/><path class="cls-2" d="M241.9,93.65a4,4,0,0,1,4,4v7.11h-8V97.67a4,4,0,0,1,4-4Z"/><path class="cls-2" d="M620.9,76.05a4,4,0,0,1,4,4v7.11h-8V80.07a4,4,0,0,1,4-4Z"/><path class="cls-2" d="M620.9,93.67a4,4,0,0,1,4,4v7.12h-8V97.69a4,4,0,0,1,4-4Z"/><path class="cls-2" d="M154,76.05a4,4,0,0,1,4,4v7.11h-8V80.07a4,4,0,0,1,4-4Z"/><path class="cls-2" d="M154,93.65a4,4,0,0,1,4,4v7.11h-8V97.67a4,4,0,0,1,4-4Z"/><path class="cls-2" d="M533,76.05a4,4,0,0,1,4,4v7.11h-8V80.07a4,4,0,0,1,4-4Z"/><path class="cls-2" d="M533,93.67a4,4,0,0,1,4,4v7.12h-8V97.69a4,4,0,0,1,4-4Z"/><path class="cls-2" d="M79.94,116.2c2.22,0,3.24,1.66,3.24,4.38v6.53H76.64v-6.53c0-2.72,1.09-4.38,3.3-4.38Z"/><path class="cls-2" d="M458.94,116.2c2.22,0,3.24,1.66,3.24,4.38v6.53h-6.54v-6.53c0-2.72,1.09-4.38,3.3-4.38Z"/><path class="cls-2" d="M168.76,116.2c2.22,0,3.24,1.66,3.24,4.38v6.53h-6.54v-6.53c0-2.72,1.09-4.38,3.3-4.38Z"/><path class="cls-2" d="M547.77,116.2c2.21,0,3.23,1.66,3.23,4.38v6.53h-6.54v-6.53c0-2.72,1.09-4.38,3.31-4.38Z"/><path class="cls-2" d="M57.48,115.34c1.24,0,2.53.19,2.53,2.8v8.67h-4.8v-8.67c0-2.61,1-2.8,2.27-2.8Z"/><path class="cls-2" d="M644.35,115.34c1.23,0,2.52.48,2.52,2.7v7h-4.8v-7c0-2.22,1-2.7,2.28-2.7Z"/><path class="cls-2" d="M662.9,115.34c1.24,0,2.53.48,2.53,2.7v7h-4.8v-7c0-2.22,1-2.7,2.27-2.7Z"/><path class="cls-2" d="M681.46,115.34c1.23,0,2.53.48,2.53,2.7v7h-4.8v-7c0-2.22,1-2.7,2.27-2.7Z"/><path class="cls-2" d="M39.37,115.34c1.24,0,2.53.19,2.53,2.8v8.67H37.1v-8.67c0-2.61,1-2.8,2.27-2.8Z"/><path class="cls-2" d="M20.4,115.34c1.23,0,2.52.29,2.52,2.89v8.58h-4.8v-8.58c0-2.6,1-2.89,2.28-2.89Z"/><path class="cls-2" d="M94.75,116.2c2.21,0,3.23,1.66,3.23,4.38v6.53H91.44v-6.53c0-2.72,1.09-4.38,3.31-4.38Z"/><path class="cls-2" d="M473.75,116.2c2.21,0,3.23,1.66,3.23,4.38v6.53h-6.54v-6.53c0-2.72,1.09-4.38,3.31-4.38Z"/><path class="cls-2" d="M183.57,116.2c2.21,0,3.24,1.66,3.24,4.38v6.53h-6.54v-6.53c0-2.72,1.09-4.38,3.3-4.38Z"/><path class="cls-2" d="M562.57,116.2c2.21,0,3.24,1.66,3.24,4.38v6.53h-6.54v-6.53c0-2.72,1.09-4.38,3.3-4.38Z"/><path class="cls-2" d="M109.55,116.2c2.21,0,3.24,1.66,3.24,4.38v6.53h-6.54v-6.53c0-2.72,1.09-4.38,3.3-4.38Z"/><path class="cls-2" d="M488.55,116.2c2.21,0,3.24,1.66,3.24,4.38v6.53h-6.54v-6.53c0-2.72,1.09-4.38,3.3-4.38Z"/><path class="cls-2" d="M198.37,116.2c2.22,0,3.24,1.66,3.24,4.38v6.53h-6.54v-6.53c0-2.72,1.09-4.38,3.3-4.38Z"/><path class="cls-2" d="M577.37,116.2c2.22,0,3.24,1.66,3.24,4.38v6.53h-6.54v-6.53c0-2.72,1.09-4.38,3.3-4.38Z"/><path class="cls-2" d="M124.35,116.2c2.22,0,3.24,1.66,3.24,4.38v6.53h-6.54v-6.53c0-2.72,1.09-4.38,3.3-4.38Z"/><path class="cls-2" d="M503.35,116.2c2.22,0,3.24,1.66,3.24,4.38v6.53h-6.54v-6.53c0-2.72,1.09-4.38,3.3-4.38Z"/><path class="cls-2" d="M213.18,116.2c2.21,0,3.23,1.66,3.23,4.38v6.53h-6.54v-6.53c0-2.72,1.09-4.38,3.31-4.38Z"/><path class="cls-2" d="M592.18,116.2c2.21,0,3.24,1.66,3.24,4.38v6.53h-6.55v-6.53c0-2.72,1.09-4.38,3.31-4.38Z"/><path class="cls-2" d="M139.16,116.2c2.21,0,3.24,1.66,3.24,4.38v6.53h-6.55v-6.53c0-2.72,1.09-4.38,3.31-4.38Z"/><path class="cls-2" d="M518.16,116.2c2.21,0,3.24,1.66,3.24,4.38v6.53h-6.54v-6.53c0-2.72,1.09-4.38,3.3-4.38Z"/><path class="cls-2" d="M228,116.2c2.21,0,3.24,1.66,3.24,4.38v6.53h-6.54v-6.53c0-2.72,1.09-4.38,3.3-4.38Z"/><path class="cls-2" d="M607,116.2c2.21,0,3.24,1.66,3.24,4.38v6.53h-6.54v-6.53c0-2.72,1.09-4.38,3.3-4.38Z"/><path class="cls-2" d="M241.9,116.2c2.21,0,3.23,1.66,3.23,4.38v6.53h-6.54v-6.53c0-2.72,1.09-4.38,3.31-4.38Z"/><path class="cls-2" d="M620.9,116.2c2.21,0,3.23,1.66,3.23,4.38v6.53h-6.54v-6.53c0-2.72,1.09-4.38,3.31-4.38Z"/><path class="cls-2" d="M154,116.2c2.21,0,3.24,1.66,3.24,4.38v6.53h-6.54v-6.53c0-2.72,1.09-4.38,3.3-4.38Z"/><path class="cls-2" d="M533,116.2c2.21,0,3.24,1.66,3.24,4.38v6.53h-6.54v-6.53c0-2.72,1.09-4.38,3.3-4.38Z"/><line class="cls-12" x1="70.05" y1="67.02" x2="253.83" y2="67.02"/><line class="cls-12" x1="448.31" y1="67.05" x2="632.13" y2="67.05"/><line class="cls-5" x1="286.87" y1="54.98" x2="415.45" y2="54.98"/><path class="cls-13" d="M14.33,63.1v-12l-.77-.33,0-4c0-1.23-.5-3.27-2.18-3.27s-2.2,1.9-2.21,3.28v4L8.34,51V63.1Z"/><path class="cls-13" d="M687.85,63.1v-12l.78-.33,0-4c0-1.23.51-3.27,2.18-3.27s2.21,1.9,2.22,3.28v4l.79.23V63.1Z"/><path class="cls-13" d="M32.77,63.1v-12L32,50.74l0-4c0-1.23-.51-3.27-2.18-3.27s-2.21,1.9-2.22,3.28v4l-.79.23V63.1Z"/><path class="cls-13" d="M669.41,63.1v-12l.78-.33,0-4c0-1.23.51-3.27,2.18-3.27s2.2,1.9,2.21,3.28v4l.79.23V63.1Z"/><path class="cls-13" d="M51.26,63.1v-12l-.77-.33v-4c0-1.23-.55-3.27-2.22-3.27s-2.2,1.9-2.21,3.28v4l-.79.23V63.1Z"/><path class="cls-13" d="M650.93,63.1v-12l.77-.33v-4c0-1.23.55-3.27,2.22-3.27s2.21,1.9,2.22,3.28v4l.79.23V63.1Z"/><path class="cls-13" d="M69.75,63.1v-12L69,50.74v-4c0-1.23-.54-3.27-2.21-3.27s-2.21,1.9-2.22,3.28v4l-.79.23V63.1Z"/><path class="cls-13" d="M632.44,63.1v-12l.78-.33v-4c0-1.23.55-3.27,2.22-3.27s2.2,1.9,2.21,3.28v4l.79.23V63.1Z"/><polyline class="cls-14" points="8.34 63.11 8.04 63.11 8.04 67.28 8.75 67.28 8.74 110.77 6.82 110.77 6.82 113.42 8.49 113.42 8.49 131.44 7.22 132.38 7.22 142.63"/><polyline class="cls-14" points="693.84 63.11 694.15 63.11 694.15 67.28 693.44 67.28 693.44 110.77 695.37 110.77 695.37 113.42 693.7 113.42 693.7 131.44 694.96 132.38 694.96 142.63"/><polyline class="cls-14" points="14.32 63.11 14.63 63.11 14.63 67.28 13.92 67.28 13.92 71.97"/><polyline class="cls-14" points="687.86 63.11 687.56 63.11 687.56 67.28 688.26 67.28 688.26 71.97"/><polyline class="cls-14" points="32.78 63.11 33.08 63.11 33.08 67.28 32.38 67.28 32.38 71.97"/><polyline class="cls-14" points="669.41 63.11 669.1 63.11 669.1 67.28 669.81 67.28 669.81 71.97"/><polyline class="cls-14" points="51.27 63.11 51.57 63.11 51.57 67.28 50.86 67.28 50.86 71.97"/><path class="cls-14" d="M650.92,63.11h-.31v4.17h.71V72M26.83,63.11h-.31v4.17h.71V72"/><polyline class="cls-14" points="675.36 63.11 675.66 63.11 675.66 67.28 674.95 67.28 674.95 71.97"/><polyline class="cls-14" points="45.28 63.11 44.98 63.11 44.98 67.28 45.69 67.28 45.69 71.97"/><polyline class="cls-14" points="656.9 63.11 657.21 63.11 657.21 67.28 656.5 67.28 656.5 71.97"/><polyline class="cls-14" points="63.76 63.11 63.46 63.11 63.46 67.28 64.17 67.28 64.17 71.97"/><polyline class="cls-14" points="638.42 63.11 638.73 63.11 638.73 67.28 638.02 67.28 638.02 71.97"/><polyline class="cls-14" points="69.74 63.11 70.05 63.11 70.05 67.28 69.34 67.28 69.34 110.77 71.27 110.77 71.27 113.42 69.59 113.42 69.59 131.44 70.86 132.38 70.86 142.63"/><polyline class="cls-14" points="632.45 63.11 632.14 63.11 632.14 67.28 632.85 67.28 632.85 110.77 630.92 110.77 630.92 113.42 632.59 113.42 632.59 131.44 631.33 132.38 631.33 142.63"/><path class="cls-15" d="M663.13,53.77v9.34m18.49-9.34v9.34m-36.84-9.34v9.34"/><path class="cls-14" d="M260.68,55V42.84a9,9,0,0,0-3.15-7,9.36,9.36,0,0,0-3.09,7V55l-3.85.86V59.5h3.3v45.61h-1.32v8.22h.86V130.7l-1.19,1.59v10.35M421.93,55V42.77a9,9,0,0,0-3.15-7,9.33,9.33,0,0,0-3.09,7V55l-3.85.79v3.77h3.3V105h-1.32v8.22h.86v17.38l-1.19,1.59v10.6"/><path class="cls-14" d="M280.25,55V42.84a9,9,0,0,1,3.16-7,9.39,9.39,0,0,1,3.08,7V55l3.86.86v3.68H287v45.6h1.32v8.22h-.86V130.7l1.19,1.59v10.35M441.5,54.91V42.77a8.94,8.94,0,0,1,3.16-7,9.35,9.35,0,0,1,3.08,7V55l3.87.86v3.6h-3.31V105h1.33v8.22h-.87v17.38l1.19,1.59v10.6"/><polygon class="cls-2" points="290.06 106.45 290.06 110.77 296.4 110.77 296.4 106.45 295.46 104.09 295.25 73.39 291.27 73.39 291.07 104.15 290.06 106.45 290.06 106.45"/><polygon class="cls-2" points="313.2 106.45 313.2 110.77 319.54 110.77 319.54 106.45 318.6 104.09 318.39 73.39 314.42 73.39 314.21 104.15 313.2 106.45 313.2 106.45"/><polygon class="cls-2" points="336.34 106.45 336.34 110.77 342.68 110.77 342.68 106.45 341.74 104.09 341.54 73.39 337.56 73.39 337.35 104.15 336.34 106.45 336.34 106.45"/><polygon class="cls-2" points="359.55 106.45 359.55 110.77 365.89 110.77 365.89 106.45 364.95 104.09 364.74 73.39 360.76 73.39 360.56 104.15 359.55 106.45 359.55 106.45"/><polygon class="cls-2" points="382.69 106.45 382.69 110.77 389.03 110.77 389.03 106.45 388.09 104.09 387.88 73.39 383.9 73.39 383.7 104.15 382.69 106.45 382.69 106.45"/><polygon class="cls-2" points="405.83 106.45 405.83 110.77 412.17 110.77 412.17 106.45 411.23 104.09 411.02 73.39 407.04 73.39 406.84 104.15 405.83 106.45 405.83 106.45"/><path class="cls-2" d="M66.17,43.58H61.08L48.54,26.51V21l-.36-1.32-1-1-.11-.1-.17-.12-.17.12-.11.1-.91.85-.42,1.17H32.77l-.42-1.17-.91-.85-.11-.1-.17-.12L31,18.6l-.11.1-1,1L29.54,21v5.53h-.06L13.54,48.42l0,2.32.77.33v2.71H26.78V51l.79-.23v-4c.07-3.06,1.69-3.28,2.22-3.28s2.07.3,2.18,3.27l0,4,.77.33v2.72H45.26V51l.79-.23v-4c.07-3,1.64-3.31,2.21-3.28s2.13.36,2.22,3.27v4l.77.33v2.72h12.5V51l.79-.23v-2h0v-2c0-.89.23-2.74,1.63-3.2Z"/><path class="cls-2" d="M636,43.58h5.09l12.53-17.07V21l.36-1.32,1-1,.1-.1.17-.12.18.12.1.1.92.85.41,1.17h12.55l.41-1.17.92-.85.1-.1.18-.12.17.12.1.1,1,1,.36,1.32v5.53h.06l15.94,21.91,0,2.32-.78.33v2.71H675.4V51l-.79-.23v-4c-.07-3.06-1.68-3.28-2.21-3.28s-2.08.3-2.18,3.27l0,4-.78.33v2.72H656.92V51l-.79-.23v-4c-.07-3-1.64-3.31-2.22-3.28s-2.13.36-2.22,3.27v4l-.77.33v2.72h-12.5V51l-.79-.23v-2h0v-2c0-.89-.23-2.74-1.62-3.2Z"/><path class="cls-16" d="M387.71,122.05h-3.16a10.37,10.37,0,0,0-20.61,0h-2.56a10.37,10.37,0,0,0-20.61,0h-2.56a10.37,10.37,0,0,0-20.61,0h-3.25"/><path class="cls-17" d="M413.83,142.62V110.85m35.79,31.72V110.81"/><line class="cls-18" x1="413.82" y1="110.74" x2="413.82" y2="66.51"/><line class="cls-19" x1="449.61" y1="110.76" x2="449.61" y2="59.39"/><path class="cls-17" d="M288.34,142.62V110.85m-35.79,31.72V110.81"/><line class="cls-18" x1="288.35" y1="110.74" x2="288.35" y2="66.51"/><line class="cls-19" x1="252.55" y1="110.76" x2="252.55" y2="59.39"/><path class="cls-20" d="M500.8,58.66v8.39m14.47-8.39v8.39"/><line class="cls-21" x1="530.02" y1="58.68" x2="530.02" y2="67.05"/><path class="cls-20" d="M545.21,58.66v8.39m14.59-8.39v8.39m15-8.39v8.39m15-8.39v8.39m14.46-8.39v8.39m14.56-8.39v8.39M485.94,58.66v8.39M471,58.66v8.39m-14.08-8.39v8.39m50.49-8.39v8.39m14.48-8.39v8.39"/><line class="cls-21" x1="536.65" y1="58.68" x2="536.65" y2="67.05"/><path class="cls-20" d="M551.84,58.66v8.39m14.59-8.39v8.39m15-8.39v8.39m14.95-8.39v8.39m14.47-8.39v8.39m14.55-8.39v8.39M492.57,58.66v8.39m-14.93-8.39v8.39m-14.09-8.39v8.39"/><line class="cls-22" x1="120.51" y1="58.66" x2="120.51" y2="67.04"/><path class="cls-20" d="M135.92,58.66V67m14.55-8.38V67"/><path class="cls-22" d="M165.7,58.66V67m14.59-8.38V67"/><path class="cls-21" d="M194.88,58.7V67m14.59-8.34V67"/><path class="cls-22" d="M224.54,58.66V67m14.11-8.38V67"/><line class="cls-20" x1="105.82" y1="58.66" x2="105.82" y2="67.04"/><path class="cls-20" d="M91.41,58.66V67M76.72,58.66V67"/><path class="cls-20" d="M127.13,58.66V67m15.41-8.38V67"/><path class="cls-22" d="M157.09,58.66V67m15.23-8.38V67"/><path class="cls-21" d="M186.91,58.7V67m14.6-8.34V67"/><path class="cls-22" d="M216.1,58.66V67m15.07-8.38V67"/><line class="cls-22" x1="245.28" y1="58.66" x2="245.28" y2="67.02"/><line class="cls-22" x1="112.44" y1="58.66" x2="112.44" y2="67.04"/><line class="cls-21" x1="98.04" y1="58.7" x2="98.04" y2="67.04"/><line class="cls-20" x1="83.35" y1="58.66" x2="83.35" y2="67.04"/></svg>