<svg xmlns="http://www.w3.org/2000/svg" fill="currentcolor" viewBox="0 0 702.18 186.98"><path fill="currentcolor" d="M175.44 186.69v-26.5h3.7v12.5l6.09-12.5h3.43l-5.23 11.68 6.08 14.82h-3.6l-5.07-12.43-1.7 3.07v9.36zm34 0l5.63-26.5h3.56l5.66 26.5h-3.5l-1.21-6.69h-5.4l-1.27 6.68zm5.23-9.33h4.42l-2.22-11.94zm31.55 9.33v-26.5h2.52l7.52 17.6v-17.6h3.08v26.5H257l-7.62-18.1v18.1zm43.16.31a7.12 7.12 0 0 1-4.37-1.17 6.07 6.07 0 0 1-2.16-3.18 15.06 15.06 0 0 1-.61-4.45v-9.36a16 16 0 0 1 .61-4.68 5.62 5.62 0 0 1 2.16-3.09 7.49 7.49 0 0 1 4.37-1.09 7.37 7.37 0 0 1 3.94.91 5.1 5.1 0 0 1 2.09 2.62 11.59 11.59 0 0 1 .64 4.09v2.09h-3.5v-1.86a19.93 19.93 0 0 0-.15-2.6 2.76 2.76 0 0 0-.8-1.75 3.1 3.1 0 0 0-2.19-.62 2.79 2.79 0 0 0-3.22 2.56 16.19 16.19 0 0 0-.22 2.87v10.5a12.06 12.06 0 0 0 .33 3.16 2.8 2.8 0 0 0 1.08 1.65 3.65 3.65 0 0 0 2 .49 2.93 2.93 0 0 0 2.16-.67 3.24 3.24 0 0 0 .82-1.85 20.08 20.08 0 0 0 .16-2.75v-2h3.5v2a13.81 13.81 0 0 1-.59 4.27 5.39 5.39 0 0 1-2 2.88 6.85 6.85 0 0 1-4.05 1.03zm29.45-.31v-26.5h10.27v2.74h-6.58v8.77h5.34v2.62h-5.34V184h6.65v2.65zm32.55 0v-26.5h3.7V184h6.77v2.65zm32.23 0v-26.5h3.7V184h6.77v2.65zm30.79 0l5.63-26.5h3.57l5.66 26.5h-3.5l-1.21-6.69h-5.4l-1.28 6.68zm5.24-9.33h4.42l-2.23-11.94zm1.27-18.74l1.93-6.48h3.51l-3.67 6.48zm30.27 28.07v-26.5h5.33a11.77 11.77 0 0 1 4.39.7 4.93 4.93 0 0 1 2.57 2.26 8.65 8.65 0 0 1 .83 4.07 11 11 0 0 1-.3 2.78 5.31 5.31 0 0 1-1 2.13 4.24 4.24 0 0 1-1.9 1.26l3.76 13.28h-3.56l-3.47-12.43h-2.88v12.43zm3.7-15.08h1.41a7 7 0 0 0 2.55-.4 2.66 2.66 0 0 0 1.44-1.34 6.29 6.29 0 0 0 .45-2.65 5.22 5.22 0 0 0-.85-3.35c-.56-.69-1.69-1-3.37-1h-1.63zm32.72 15.08v-26.5h3.63v26.5zm25.72 0l5.63-26.5h3.56l5.66 26.5h-3.5l-1.21-6.69h-5.4l-1.27 6.68zm5.23-9.33H523l-2.22-11.94zm-218.94-60.83h9.92v4.6h-9.92zm36.9-49.25l.58 4.26h4.85l.58-4.28v-.91h-6zm-23.15 0l.58 4.26h4.85l.58-4.28v-.91h-6zm-12.59 66.06h7.6v-6.49h-7.6zm-264.24 5.95h5.91v-3.84h-5.91zm-19 0h5.91v-3.84h-5.86zm272.63-72l.58 4.26h4.85l.58-4.28v-.91h-6zm-235.32 72h5.96v-3.84h-5.91zm304.77-72l.58 4.26h4.84l.59-4.28v-.91h-6zm300.81 72h5.91v-3.84h-5.91zm18.36-3.84v3.84h5.9v-3.84zm-37.31 3.84h5.91v-3.84h-5.91zM406 67.28l.58 4.26h4.84l.59-4.28v-.91h-6zm-12.2 66.06h7.61v-6.69h-7.61zm-1.15-12.21h9.91v-4.6h-9.91zm-9.84-53.85l.58 4.26h4.84l.59-4.28v-.91h-6z"/><path d="M429.69 11.69V10h.79V5l.35-1.88.89-3.12.9 3.16L433 5v5h.79v1.73l8.74 26.83a8.85 8.85 0 0 0-.92 3.33h-19.76a8.53 8.53 0 0 0-.91-3.31l8.75-26.85zm-119.33 68a5.68 5.68 0 0 0-1.56-1.15 9.13 9.13 0 0 0-8 0 5.68 5.68 0 0 0-1.56 1.15 3.68 3.68 0 0 0-1.07 2.48v24.41h13.29V82.21a3.68 3.68 0 0 0-1.07-2.48zm23.15 0a5.68 5.68 0 0 0-1.51-1.11 9.13 9.13 0 0 0-8 0 5.68 5.68 0 0 0-1.56 1.15 3.68 3.68 0 0 0-1.07 2.48v24.41h13.29V82.21a3.68 3.68 0 0 0-1.07-2.48zm23.15 0a5.68 5.68 0 0 0-1.56-1.15 9.13 9.13 0 0 0-8 0 5.68 5.68 0 0 0-1.56 1.15 3.68 3.68 0 0 0-1.07 2.48v24.41h13.29V82.21a3.68 3.68 0 0 0-1.07-2.48zm23.15 0a5.68 5.68 0 0 0-1.56-1.15 9.13 9.13 0 0 0-8 0 5.68 5.68 0 0 0-1.56 1.15 3.68 3.68 0 0 0-1.07 2.48v24.41h13.29V82.21a3.68 3.68 0 0 0-1.07-2.48zm23.15 0a5.68 5.68 0 0 0-1.56-1.15 9.13 9.13 0 0 0-8 0 5.68 5.68 0 0 0-1.56 1.15 3.68 3.68 0 0 0-1.07 2.48v24.41H404V82.21a3.68 3.68 0 0 0-1-2.48zm-68.49 45.4v-2.26a6.53 6.53 0 1 0-13.06 0v10.85l.07.1v4.39h12.92v-4.39l.07-.07v-8.62zm23.15.38v-2.26a6.53 6.53 0 0 0-13.06 0v10.47l.07.1v4.39h12.93v-4.39l.07-.07v-8.24zm23.15-.12v-2.26a6.54 6.54 0 1 0-13.07 0v10.59l.08.1v4.39h12.92v-4.39l.07-.07v-8.36zm21.28-77h13.64v-4.79h-3.29l-22-25.46-2.4-3.16h.2v-5.5a3.66 3.66 0 0 0-.35-1.56 1.77 1.77 0 0 0-1.13-1h-.55a1.77 1.77 0 0 0-1.13 1 3.66 3.66 0 0 0-.35 1.56v4.7h-67.25v-4.7a3.39 3.39 0 0 0-.35-1.56 1.77 1.77 0 0 0-1.13-1h-.54a1.77 1.77 0 0 0-1.13 1 3.39 3.39 0 0 0-.35 1.56v5.5h.2-.19l.22.05-2.37 3.18-22.06 25.41h-3.24v4.76h13.63c0-5.28 9.32-5.2 9.32 0h13.83c0-5.29 9.32-5.26 9.32 0h13.83c0-5.35 9.32-5.27 9.32 0h13.82c0-5.29 9.33-5.31 9.33 0h13.82c0-5.42 9.33-5.54 9.33 0zM272.49 11.69V10h-.8V5l-.34-1.88-.9-3.12-.9 3.16-.34 1.84v5h-.8v1.73l-8.75 26.86a8.25 8.25 0 0 1 .94 3.3h19.73a8.82 8.82 0 0 1 .92-3.26l-8.76-26.9zm-8.11 66.63a2.37 2.37 0 0 0-4.35 0v8.86h4.35v-8.86zm161.36 0a2.37 2.37 0 0 0-4.35 0v8.86h4.35v-8.86zm-153.11 0c-.82-2.06-3.87-2.06-4.35 0v8.86h4.35v-8.86zm161.36 0c-.82-2.06-3.87-2.06-4.35 0v8.86H434v-8.86zm-153.66 0a2.36 2.36 0 0 0-4.35 0v8.86h4.35v-8.86zm161.36 0a2.36 2.36 0 0 0-4.35 0v8.86h4.35v-8.86zM260 95.2v9.61h4.35V95.2zm161.36 0v9.61h4.35V95.2zm-153.11 0v9.61h4.35V95.2zm161.36 0v9.61H434V95.2zM276 95.2v9.61h4.35V95.2zm161.36 0v9.61h4.35V95.2zM260 116.45v9.94h4.35v-9.94zm161.36 0v9.94h4.35v-9.94zm-153.12 0v9.94h4.35v-9.94zm161.36 0v9.94h4.4v-9.94zm-153.53 0v9.94h4.35v-9.94zm161.36 0v9.94h4.36v-9.94zM260 135.2v3.8h4.42v-3.8zm161.36 0v3.8h4.42v-3.8zm-153.11 0v3.8h4.42v-3.8zm161.36 0v3.8H434v-3.8zm-153.5 0v3.8h4.42v-3.8zm161.36 0v3.8h4.42v-3.8zM69.74 58.66h7.58a.81.81 0 0 0 .77-.58 2.37 2.37 0 0 1 4 0 .8.8 0 0 0 .77.58h9a.81.81 0 0 0 .77-.58 2.37 2.37 0 0 1 4 0 .8.8 0 0 0 .77.58h8.89a.8.8 0 0 0 .76-.58 2.38 2.38 0 0 1 4 0 .8.8 0 0 0 .76.58h9.33a.8.8 0 0 0 .76-.58 2.37 2.37 0 0 1 4 0 .8.8 0 0 0 .76.58h9.61a.8.8 0 0 0 .77-.58 2.37 2.37 0 0 1 4 0 .8.8 0 0 0 .77.58H151a.8.8 0 0 0 .76-.58 2.37 2.37 0 0 1 4 0 .8.8 0 0 0 .76.58h9.61a.77.77 0 0 0 .77-.54 2.37 2.37 0 0 1 4 0 .8.8 0 0 0 .77.57h9.07a.8.8 0 0 0 .77-.58 2.37 2.37 0 0 1 4 0 .81.81 0 0 0 .77.58h9.07a.8.8 0 0 0 .76-.58 2.37 2.37 0 0 1 4 0 .81.81 0 0 0 .77.58h9.23a.8.8 0 0 0 .76-.58 2.37 2.37 0 0 1 4 0 .82.82 0 0 0 .77.58h9.55a.8.8 0 0 0 .76-.58 2.38 2.38 0 0 1 4 0 .8.8 0 0 0 .76.58h8.48a.8.8 0 0 0 .77-.58 2.37 2.37 0 0 1 4 0 .8.8 0 0 0 .77.58h5.92v-2.84l3.87-.86V43.58H67.28c1.45.42 1.72 2.6 1.72 3.19v4l.78.33v7.59zm562.71 0v-7.59l.77-.33v-4c0-.72.31-2.81 1.7-3.19H447.75v11.41l3.87.86v2.81h5.94a.8.8 0 0 0 .76-.58 2.37 2.37 0 0 1 4 0 .8.8 0 0 0 .76.58h8.48a.8.8 0 0 0 .77-.58 2.37 2.37 0 0 1 4 0 .8.8 0 0 0 .77.58h9.54a.8.8 0 0 0 .77-.58 2.37 2.37 0 0 1 4 0 .81.81 0 0 0 .77.58h9.22a.8.8 0 0 0 .77-.58 2.37 2.37 0 0 1 4 0 .81.81 0 0 0 .77.58H516a.8.8 0 0 0 .76-.58 2.37 2.37 0 0 1 4 0 .82.82 0 0 0 .77.58h9.07a.79.79 0 0 0 .76-.57 2.37 2.37 0 0 1 4 0 .79.79 0 0 0 .77.54h9.61a.8.8 0 0 0 .77-.58 2.37 2.37 0 0 1 4 0 .8.8 0 0 0 .77.58h9.18a.8.8 0 0 0 .76-.58 2.38 2.38 0 0 1 4 0 .8.8 0 0 0 .76.58h9.61a.8.8 0 0 0 .77-.58 2.37 2.37 0 0 1 4 0 .81.81 0 0 0 .77.58h9.32a.8.8 0 0 0 .77-.58 2.37 2.37 0 0 1 4 0 .8.8 0 0 0 .77.58h8.89a.81.81 0 0 0 .77-.58 2.37 2.37 0 0 1 4 0 .8.8 0 0 0 .76.58h9a.81.81 0 0 0 .77-.58 2.37 2.37 0 0 1 4 0 .8.8 0 0 0 .77.58h7.58zM0 142.63v3.25h702.18v-3.25zm264.23-97.11v5h2.19v-5zm10.21 0v5h2.19v-5zm-4.94 0v5h2.19v-5zm156.07 0v5h2.19v-5zm10.21 0v5H438v-5zm-4.93 0v5H433v-5zM79.94 76.05a4 4 0 0 0-4 4v7.11h8v-7.09a4 4 0 0 0-4-4zm0 17.6a4 4 0 0 0-4 4v7.11h8v-7.09a4 4 0 0 0-4-4zm379-17.6a4 4 0 0 0-4 4v7.11h8v-7.09a4 4 0 0 0-4-4zm0 17.62a4 4 0 0 0-4 4v7.12h8v-7.1a4 4 0 0 0-4-4zM168.76 76.05a4 4 0 0 0-4 4v7.11h8v-7.09a4 4 0 0 0-4-4zm0 17.6a4 4 0 0 0-4 4v7.11h8v-7.09a4 4 0 0 0-4-4zm379-17.6a4 4 0 0 0-4 4v7.11h8v-7.09a4 4 0 0 0-4-4zm0 17.62a4 4 0 0 0-4 4v7.12h8v-7.1a4 4 0 0 0-4-4zM57.47 75.28a2.75 2.75 0 0 0-2.54 3v8.13H60v-8.12a2.75 2.75 0 0 0-2.54-3zm586.86 0a2.75 2.75 0 0 0-2.54 3v8.13h5.08v-8.12a2.75 2.75 0 0 0-2.54-3zm18.56 0a2.75 2.75 0 0 0-2.54 3v8.13h5.08v-8.12a2.75 2.75 0 0 0-2.54-3zm18.55 0a2.75 2.75 0 0 0-2.54 3v8.13h5.1v-8.12a2.75 2.75 0 0 0-2.55-3zm-37.11 18.39a2.75 2.75 0 0 0-2.54 3v8.13h5.08v-8.12a2.75 2.75 0 0 0-2.54-3zm18.56 0a2.75 2.75 0 0 0-2.54 3v8.13h5.08v-8.12a2.75 2.75 0 0 0-2.54-3zm18.55 0a2.75 2.75 0 0 0-2.54 3v8.13h5.1v-8.12a2.75 2.75 0 0 0-2.55-3zM39.36 75.28a2.75 2.75 0 0 0-2.55 3v8.13h5.09v-8.12a2.75 2.75 0 0 0-2.54-3zm-19 0a2.75 2.75 0 0 0-2.54 3v8.13h5.08v-8.12a2.75 2.75 0 0 0-2.54-3zm37.11 18.37a2.75 2.75 0 0 0-2.54 3v8.12H60v-8.11a2.75 2.75 0 0 0-2.54-3zm-18.11 0a2.75 2.75 0 0 0-2.55 3v8.12h5.09v-8.11a2.75 2.75 0 0 0-2.54-3zm-19 0a2.75 2.75 0 0 0-2.54 3v8.12h5.08v-8.11a2.75 2.75 0 0 0-2.54-3zm74.37-17.6a4 4 0 0 0-4 4v7.11h8v-7.09a4 4 0 0 0-4-4zm0 17.6a4 4 0 0 0-4 4v7.11h8v-7.09a4 4 0 0 0-4-4zm379-17.6a4 4 0 0 0-4 4v7.11h8v-7.09a4 4 0 0 0-4-4zm0 17.62a4 4 0 0 0-4 4v7.12h8v-7.1a4 4 0 0 0-4-4zM183.57 76.05a4 4 0 0 0-4 4v7.11h8v-7.09a4 4 0 0 0-4-4zm0 17.6a4 4 0 0 0-4 4v7.11h8v-7.09a4 4 0 0 0-4-4zm379-17.6a4 4 0 0 0-4 4v7.11h8v-7.09a4 4 0 0 0-4-4zm0 17.62a4 4 0 0 0-4 4v7.12h8v-7.1a4 4 0 0 0-4-4zm-453-17.62a4 4 0 0 0-4 4v7.11h8v-7.09a4 4 0 0 0-4-4zm0 17.6a4 4 0 0 0-4 4v7.11h8v-7.09a4 4 0 0 0-4-4zm379-17.6a4 4 0 0 0-4 4v7.11h8v-7.09a4 4 0 0 0-4-4zm0 17.62a4 4 0 0 0-4 4v7.12h8v-7.1a4 4 0 0 0-4-4zm-290.2-17.62a4 4 0 0 0-4 4v7.11h8v-7.09a4 4 0 0 0-4-4zm0 17.6a4 4 0 0 0-4 4v7.11h8v-7.09a4 4 0 0 0-4-4zm379-17.6a4 4 0 0 0-4 4v7.11h8v-7.09a4 4 0 0 0-4-4zm0 17.62a4 4 0 0 0-4 4v7.12h8v-7.1a4 4 0 0 0-4-4zm-453-17.62a4 4 0 0 0-4 4v7.11h8v-7.09a4 4 0 0 0-4-4zm0 17.6a4 4 0 0 0-4 4v7.11h8v-7.09a4 4 0 0 0-4-4zm379-17.6a4 4 0 0 0-4 4v7.11h8v-7.09a4 4 0 0 0-4-4zm0 17.62a4 4 0 0 0-4 4v7.12h8v-7.1a4 4 0 0 0-4-4zM213.18 76.05a4 4 0 0 0-4 4v7.11h8v-7.09a4 4 0 0 0-4-4zm0 17.6a4 4 0 0 0-4 4v7.11h8v-7.09a4 4 0 0 0-4-4zm379-17.6a4 4 0 0 0-4 4v7.11h8v-7.09a4 4 0 0 0-4-4zm0 17.62a4 4 0 0 0-4 4v7.12h8v-7.1a4 4 0 0 0-4-4zm-453-17.62a4 4 0 0 0-4 4v7.11h8v-7.09a4 4 0 0 0-4-4zm0 17.6a4 4 0 0 0-4 4v7.11h8v-7.09a4 4 0 0 0-4-4zm379-17.6a4 4 0 0 0-4 4v7.11h8v-7.09a4 4 0 0 0-4-4zm0 17.62a4 4 0 0 0-4 4v7.12h8v-7.1a4 4 0 0 0-4-4zM228 76.05a4 4 0 0 0-4 4v7.11h8v-7.09a4 4 0 0 0-4-4zm0 17.6a4 4 0 0 0-4 4v7.11h8v-7.09a4 4 0 0 0-4-4zm379-17.6a4 4 0 0 0-4 4v7.11h8v-7.09a4 4 0 0 0-4-4zm0 17.62a4 4 0 0 0-4 4v7.12h8v-7.1a4 4 0 0 0-4-4zM241.9 76.05a4 4 0 0 0-4 4v7.11h8v-7.09a4 4 0 0 0-4-4zm0 17.6a4 4 0 0 0-4 4v7.11h8v-7.09a4 4 0 0 0-4-4zm379-17.6a4 4 0 0 0-4 4v7.11h8v-7.09a4 4 0 0 0-4-4zm0 17.62a4 4 0 0 0-4 4v7.12h8v-7.1a4 4 0 0 0-4-4zM154 76.05a4 4 0 0 0-4 4v7.11h8v-7.09a4 4 0 0 0-4-4zm0 17.6a4 4 0 0 0-4 4v7.11h8v-7.09a4 4 0 0 0-4-4zm379-17.6a4 4 0 0 0-4 4v7.11h8v-7.09a4 4 0 0 0-4-4zm0 17.62a4 4 0 0 0-4 4v7.12h8v-7.1a4 4 0 0 0-4-4zM80 116.2c-2.21 0-3.3 1.66-3.3 4.38v6.53h6.54v-6.53c0-2.72-1-4.38-3.24-4.38zm379 0c-2.21 0-3.3 1.66-3.3 4.38v6.53h6.54v-6.53c0-2.72-1-4.38-3.24-4.38zm-290.18 0c-2.21 0-3.3 1.66-3.3 4.38v6.53H172v-6.53c0-2.72-1-4.38-3.24-4.38zm379 0c-2.22 0-3.31 1.66-3.31 4.38v6.53H551v-6.53c0-2.72-1-4.38-3.23-4.38zm-490.29-.86c-1.23 0-2.27.19-2.27 2.8v8.67H60v-8.67c0-2.61-1.29-2.8-2.53-2.8zm586.87 0c-1.24 0-2.28.48-2.28 2.7v7h4.8v-7c0-2.22-1.29-2.7-2.52-2.7zm18.55 0c-1.23 0-2.27.48-2.27 2.7v7h4.8v-7c0-2.22-1.29-2.7-2.53-2.7zm18.56 0c-1.24 0-2.27.48-2.27 2.7v7H684v-7c0-2.22-1.3-2.7-2.53-2.7zm-642.09 0c-1.23 0-2.27.19-2.27 2.8v8.67h4.8v-8.67c0-2.61-1.29-2.8-2.53-2.8zm-19 0c-1.24 0-2.28.29-2.28 2.89v8.58h4.8v-8.58c0-2.6-1.29-2.89-2.52-2.89zm74.35.86c-2.22 0-3.31 1.66-3.31 4.38v6.53H98v-6.53c0-2.72-1-4.38-3.23-4.38zm379 0c-2.22 0-3.31 1.66-3.31 4.38v6.53H477v-6.53c0-2.72-1-4.38-3.23-4.38zm-290.18 0c-2.21 0-3.3 1.66-3.3 4.38v6.53h6.54v-6.53c0-2.72-1-4.38-3.24-4.38zm379 0c-2.21 0-3.3 1.66-3.3 4.38v6.53h6.54v-6.53c0-2.72-1-4.38-3.24-4.38zm-453 0c-2.21 0-3.3 1.66-3.3 4.38v6.53h6.54v-6.53c0-2.72-1-4.38-3.24-4.38zm379 0c-2.21 0-3.3 1.66-3.3 4.38v6.53h6.54v-6.53c0-2.72-1-4.38-3.24-4.38zm-290.18 0c-2.21 0-3.3 1.66-3.3 4.38v6.53h6.54v-6.53c0-2.72-1-4.38-3.24-4.38zm379 0c-2.21 0-3.3 1.66-3.3 4.38v6.53h6.54v-6.53c0-2.72-1-4.38-3.24-4.38zm-453 0c-2.21 0-3.3 1.66-3.3 4.38v6.53h6.54v-6.53c0-2.72-1-4.38-3.24-4.38zm379 0c-2.21 0-3.3 1.66-3.3 4.38v6.53h6.54v-6.53c0-2.72-1-4.38-3.24-4.38zm-290.17 0c-2.22 0-3.31 1.66-3.31 4.38v6.53h6.54v-6.53c0-2.72-1-4.38-3.23-4.38zm379 0c-2.22 0-3.31 1.66-3.31 4.38v6.53h6.55v-6.53c0-2.72-1-4.38-3.24-4.38zm-453 0c-2.22 0-3.31 1.66-3.31 4.38v6.53h6.55v-6.53c0-2.72-1-4.38-3.24-4.38zm379 0c-2.21 0-3.3 1.66-3.3 4.38v6.53h6.54v-6.53c0-2.72-1-4.38-3.24-4.38zm-290.24 0c-2.21 0-3.3 1.66-3.3 4.38v6.53h6.54v-6.53c0-2.72-1-4.38-3.24-4.38zm379 0c-2.21 0-3.3 1.66-3.3 4.38v6.53h6.54v-6.53c0-2.72-1-4.38-3.24-4.38zm-365.08 0c-2.22 0-3.31 1.66-3.31 4.38v6.53h6.54v-6.53c0-2.72-1-4.38-3.23-4.38zm379 0c-2.22 0-3.31 1.66-3.31 4.38v6.53h6.54v-6.53c0-2.72-1-4.38-3.23-4.38zm-466.92 0c-2.21 0-3.3 1.66-3.3 4.38v6.53h6.54v-6.53c0-2.72-1-4.38-3.24-4.38zm379 0c-2.21 0-3.3 1.66-3.3 4.38v6.53h6.54v-6.53c0-2.72-1-4.38-3.24-4.38zm-242.9-9.75v4.32h6.34v-4.32l-.94-2.36-.2-30.7h-4l-.2 30.76-1 2.3zm23.14 0v4.32h6.34v-4.32l-.94-2.36-.2-30.7h-4l-.2 30.76-1 2.3zm23.14 0v4.32h6.34v-4.32l-.94-2.36-.2-30.7h-4l-.21 30.76-1 2.3zm23.21 0v4.32h6.34v-4.32l-.94-2.36-.21-30.7h-4l-.2 30.76-1 2.3zm23.14 0v4.32H389v-4.32l-.94-2.36-.21-30.7h-4l-.2 30.76-1 2.3zm23.14 0v4.32h6.34v-4.32l-.94-2.36-.27-30.7h-4l-.2 30.76-1 2.3zM66.17 43.58h-5.09L48.54 26.51V21l-.36-1.32-1-1-.11-.1-.17-.12-.17.12-.11.1-.91.85-.42 1.17H32.77l-.42-1.17-.91-.85-.11-.1-.17-.12-.16.14-.11.1-1 1-.35 1.3v5.53h-.06L13.54 48.42v2.32l.77.33v2.71h12.47V51l.79-.23v-4c.07-3.06 1.69-3.28 2.22-3.28s2.07.3 2.18 3.27v4l.77.33v2.72h12.52V51l.79-.23v-4c.07-3 1.64-3.31 2.21-3.28s2.13.36 2.22 3.27v4l.77.33v2.72h12.5V51l.79-.23v-4c0-.89.23-2.74 1.63-3.2zm569.85 0c1.39.46 1.62 2.31 1.62 3.2v4l.79.23v2.79h12.5v-2.73l.77-.33v-4c.09-2.91 1.73-3.33 2.22-3.27s2.15.3 2.22 3.28v4l.79.23v2.79h12.49v-2.7l.78-.33v-4c.1-3 1.68-3.3 2.18-3.27s2.14.22 2.21 3.28v4l.79.23v2.78h12.45v-2.69l.78-.33v-2.32l-15.9-21.91h-.06V21l-.36-1.32-1-1-.1-.1-.17-.12-.18.12-.1.1-.92.85-.41 1.17h-12.54l-.41-1.17-.92-.85-.1-.1-.18-.12-.17.12-.1.1-1 1-.35 1.32v5.53l-12.53 17.05z"/><g fill="none" stroke="currentcolor" stroke-miterlimit="2.6"><path stroke-width="3.06" d="M69.86 110.74V67.28m562.33 43.36V67.27M70.12 131.44v-18m561.81 18v-18"/><path stroke-width="1.93" d="M14.33 63.1h-6V51l.79-.23v-4c0-1.38.49-3.28 2.21-3.28s2.18 2 2.18 3.27v4l.77.33v12zm673.52 0h6V51l-.79-.23v-4c0-1.38-.5-3.28-2.22-3.28s-2.18 2-2.18 3.27v4l-.78.33v12zm-655.08 0v-12l-.77-.36v-4c0-1.23-.51-3.27-2.18-3.27s-2.21 1.9-2.22 3.28v4l-.79.23V63.1zm636.64 0h6V51l-.79-.23v-4c0-1.38-.49-3.28-2.21-3.28s-2.18 2-2.18 3.27v4l-.78.33v12zm-618.15 0v-12l-.77-.33v-4c0-1.23-.55-3.27-2.22-3.27s-2.2 1.9-2.21 3.28v4l-.79.23V63.1zm599.67 0h6V51l-.79-.23v-4c0-1.38-.49-3.28-2.22-3.28s-2.22 2-2.22 3.27v4l-.77.33v12zm-581.18 0v-12l-.75-.36v-4c0-1.23-.54-3.27-2.21-3.27s-2.21 1.9-2.22 3.28v4l-.79.23V63.1zm562.69 0h6V51l-.79-.23v-4c0-1.38-.49-3.28-2.21-3.28s-2.22 2-2.22 3.27v4l-.78.33v12zm-244.73 59h-3.16a10.37 10.37 0 0 0-20.61 0h-2.56a10.37 10.37 0 0 0-20.61 0h-2.56a10.37 10.37 0 0 0-20.61 0h-3.25"/><path stroke-width="1.43" d="M413.83 142.62v-31.77m35.79 31.72v-31.76m-161.28 31.81v-31.77m-35.79 31.72v-31.76"/><path stroke-width="2.27" d="M413.82 110.74V66.51m35.79 44.25V59.39m-161.26 51.35V66.51m-35.8 44.25V59.39"/><g stroke-linecap="round" stroke-linejoin="round"><path stroke-width="1.15" d="M390.25 48.37V55m14.27-6.63V55m-37.42-6.63V55m14.27-6.63V55M344 48.37V55m14.27-6.63V55m-37.47-6.63V55m14.27-6.63V55m-23.15-6.63V55m-14.26-6.63V55"/><path stroke-width="1.96" d="M287 59.52h128M8.75 71.92h245.14M63.75 63.11H14.34m238.53 68.33H8.49m-1.67-20.67h686.62M296.08 66.51h0M415 66.5H287M254.48 55h32.32M70.85 142.63v-10.26m-20-.93V71.92m13.29 59.52V71.92m-18.45 59.52V71.92m23.65 0v2.86m218.1 55.93h-34.05M287 71.57h-33.07m-.18-12h34.18M287 64h-33.12m59 78.64v-4.42m76.35 0h-76.32m136.44-7.5h-34.69m.48-59.14h33.19m-.08-12h-34.43M448.08 55h-32.71m-.24 9h33.18m-59.05 76.29v-2.07m0 4.42v-3.91M57.54 53.79v9.32M39 53.79v9.32m-18.5-9.32v9.32m6.67 68.33V71.92m5.18 59.52V71.92m-18.43 59.52V71.92m624.1 0H448.78m.84 59.52h181.71m31.8 0h30.58m-55.28-68.33h55.7m-.62 8.81H638m50.24 59.52V71.92m-25.13 59.52h-30.8m42.63 0V71.92m-5.18 59.52V71.92m-13.29 59.52V71.92m-5.18 59.52V71.92M638 131.44V71.92M70.05 67h183.78m194.48 0h183.82M286.87 55h128.58M8.34 63.11H8v4.17h.71v43.49H6.82v2.65h1.67v18l-1.27.94v10.25m686.62-79.5h.31v4.17h-.71v43.49h1.93v2.65h-1.67v18l1.26.94v10.25M13.92 72v-4.72h.71v-4.17h-.31m673.54 0h-.3v4.17h.7V72M32.38 72v-4.72h.7v-4.17h-.3m636.63 0h-.31v4.17h.71V72M50.86 72v-4.72h.71v-4.17h-.3M651.32 72v-4.72h-.71v-4.17h.31M27.23 72v-4.72h-.71v-4.17h.31M675 72v-4.72h.71v-4.17h-.3m-630.08 0H45v4.17h.71V72m610.79 0v-4.72h.71v-4.17h-.31m-593.14 0h-.3v4.17h.71V72M638 72v-4.72h.71v-4.17h-.31m-568.68 0h.31v4.17h-.71v43.49h1.93v2.65H69.6v18l1.26.94v10.25m560.47 0v-10.23l1.26-.94v-18h-1.67v-2.65h1.93V67.28h-.71v-4.17h.31m30.68-9.34v9.34m18.49-9.34v9.34m-36.84-9.34v9.34m-392.54 79.53v-10.35l1.19-1.59v-17.37h-.86v-8.22h1.32V59.5h-3.3v-3.67l3.85-.86V42.84a9.36 9.36 0 0 1 3.09-7 9 9 0 0 1 3.15 7V55m152.81 87.86v-10.6l1.19-1.59v-17.41h-.86V105h1.32V59.54h-3.3v-3.77l3.85-.79V42.77a9.33 9.33 0 0 1 3.09-7 9 9 0 0 1 3.15 7V55m-133.24 87.64v-10.35l-1.19-1.59v-17.37h.86v-8.22H287v-45.6h3.31v-3.68l-3.82-.83V42.84a9.39 9.39 0 0 0-3.08-7 9 9 0 0 0-3.16 7V55m169.69 87.86v-10.6l-1.19-1.59v-17.41h.87V105h-1.33V59.45h3.31v-3.6l-3.87-.85V42.77a9.35 9.35 0 0 0-3.08-7 8.94 8.94 0 0 0-3.16 7v12.14m59.3 3.75v8.39m14.47-8.39v8.39M530 58.68v8.37m15.19-8.39v8.39m14.59-8.39v8.39m15-8.39v8.39m15-8.39v8.39m14.46-8.39v8.39m14.56-8.39v8.39m-132.86-8.39v8.39M471 58.66v8.39m-14.08-8.39v8.39m50.49-8.39v8.39m14.48-8.39v8.39m14.75-8.37v8.37m15.19-8.39v8.39m14.59-8.39v8.39m15-8.39v8.39m14.95-8.39v8.39m14.47-8.39v8.39m14.55-8.39v8.39m-132.82-8.39v8.39m-14.93-8.39v8.39m-14.09-8.39v8.39m-343-8.39V67m15.41-8.38V67m14.55-8.38V67m15.23-8.38V67m14.59-8.38V67m14.59-8.34V67m14.59-8.34V67m15.07-8.38V67m14.11-8.38V67m-132.87-8.34V67m-14.41-8.34V67m-14.69-8.34V67m50.41-8.38V67m15.41-8.38V67m14.55-8.38V67m15.23-8.38V67m14.59-8.34V67m14.6-8.34V67m14.59-8.38V67m15.07-8.38V67m14.11-8.38V67m-132.84-8.34V67M98 58.7V67m-14.65-8.34V67"/></g></g></svg>